<mxfile host="app.diagrams.net" modified="2024-04-29T10:53:10.077Z" agent="Mozilla/5.0 (Macintosh; Intel Mac OS X 10_15_7) AppleWebKit/537.36 (KHTML, like Gecko) Chrome/124.0.0.0 Safari/537.36" version="24.3.0" etag="j27xQhV7wruHT_MmTqGx" type="github">
  <diagram name="Page-1" id="m-NrNaXzWtHRc3pcfnOm">
    <mxGraphModel>
      <root>
        <mxCell id="0" />
        <mxCell id="1" parent="0" />
      </root>
    </mxGraphModel>
  </diagram>
</mxfile>
